<svg width="26" height="25" viewBox="0 0 26 25" fill="none" xmlns="http://www.w3.org/2000/svg">
<path d="M9 21.6303C9.79613 22.2333 10.8475 22.6 12 22.6C13.1525 22.6 14.2039 22.2333 15 21.6303M3.57109 18.5272C3.09677 18.5272 2.83186 17.8207 3.11877 17.4282C3.78453 16.5174 4.42712 15.1815 4.42712 13.5728L4.45458 11.2418C4.45458 6.91087 7.83278 3.39999 12 3.39999C16.2286 3.39999 19.6566 6.96259 19.6566 11.3573L19.6291 13.5728C19.6291 15.1925 20.2495 16.5357 20.8882 17.4469C21.164 17.8404 20.8984 18.5272 20.43 18.5272H3.57109Z" stroke="#FF4220" stroke-width="2" stroke-linecap="round" stroke-linejoin="round"/>
<circle cx="20" cy="6" r="6" fill="#FF4220"/>
</svg>
