<svg width="25" height="25" viewBox="0 0 25 25" fill="none" xmlns="http://www.w3.org/2000/svg">
<path d="M17.05 23L13.5 19.45L14.9 18.05L17.025 20.175L21.275 15.925L22.675 17.35L17.05 23ZM7.9 17.5L6.5 16.1L8.1 14.5L6.5 12.9L7.9 11.5L9.5 13.1L11.1 11.5L12.5 12.9L10.9 14.5L12.5 16.1L11.1 17.5L9.5 15.9L7.9 17.5ZM5.5 22.5C4.95 22.5 4.47917 22.3042 4.0875 21.9125C3.69583 21.5208 3.5 21.05 3.5 20.5V6.5C3.5 5.95 3.69583 5.47917 4.0875 5.0875C4.47917 4.69583 4.95 4.5 5.5 4.5H6.5V2.5H8.5V4.5H16.5V2.5H18.5V4.5H19.5C20.05 4.5 20.5208 4.69583 20.9125 5.0875C21.3042 5.47917 21.5 5.95 21.5 6.5V12.85L19.5 14.875V10.5H5.5V20.5H11.75L13.725 22.5H5.5ZM5.5 8.5H19.5V6.5H5.5V8.5Z" fill="white"/>
</svg>
